<?xml version="1.0" encoding="UTF-8" standalone="no"?>
<!-- Created with Inkscape (http://www.inkscape.org/) -->

<svg
   xmlns:dc="http://purl.org/dc/elements/1.1/"
   xmlns:cc="http://creativecommons.org/ns#"
   xmlns:rdf="http://www.w3.org/1999/02/22-rdf-syntax-ns#"
   xmlns:svg="http://www.w3.org/2000/svg"
   xmlns="http://www.w3.org/2000/svg"
   xmlns:sodipodi="http://sodipodi.sourceforge.net/DTD/sodipodi-0.dtd"
   xmlns:inkscape="http://www.inkscape.org/namespaces/inkscape"
   width="300"
   height="300"
   viewBox="0 0 300.00001 300.00001"
   id="svg2"
   version="1.1"
   inkscape:version="0.91 r13725"
   sodipodi:docname="林-oracle.svg">
  <defs
     id="defs4" />
  <sodipodi:namedview
     id="base"
     pagecolor="#ffffff"
     bordercolor="#666666"
     borderopacity="1.0"
     inkscape:pageopacity="0.0"
     inkscape:pageshadow="2"
     inkscape:zoom="1.33"
     inkscape:cx="147.92594"
     inkscape:cy="133.29041"
     inkscape:document-units="px"
     inkscape:current-layer="layer1"
     showgrid="false"
     units="px"
     inkscape:window-width="990"
     inkscape:window-height="650"
     inkscape:window-x="116"
     inkscape:window-y="17"
     inkscape:window-maximized="0" />
  <metadata
     id="metadata7">
    <rdf:RDF>
      <cc:Work
         rdf:about="">
        <dc:format>image/svg+xml</dc:format>
        <dc:type
           rdf:resource="http://purl.org/dc/dcmitype/StillImage" />
        <dc:title></dc:title>
      </cc:Work>
    </rdf:RDF>
  </metadata>
  <g
     inkscape:label="Layer 1"
     inkscape:groupmode="layer"
     id="layer1"
     transform="translate(0,-752.36208)">
    <path
       style="fill:#000000"
       d="m 68.339335,1016.773 c 0,-29.93036 -10.187598,-37.49113 -18.476776,-13.7128 -3.427086,9.831 -10.173764,19.3876 -14.99261,21.2367 -14.082116,5.4038 -16.85421,-13.7563 -4.061823,-28.07461 19.475472,-21.79863 37.531209,-55.47831 37.531209,-70.00744 0,-7.5317 -8.170119,-26.42612 -18.155849,-41.98757 -19.883415,-30.98539 -32.111189,-65.26225 -23.281461,-65.26225 3.012316,0 12.646171,11.35666 21.408582,25.23722 14.170696,22.44787 16.441566,23.9322 20.544908,13.42907 2.537318,-6.4947 4.802058,-29.93739 5.032718,-52.09539 0.60351,-57.95198 15.07563,-52.47051 19.698,7.46057 l 1.61109,20.88952 13.915707,-22.38155 c 7.65373,-12.31003 16.38253,-22.38168 19.39746,-22.38168 11.46407,0 4.67849,22.24137 -16.2806,53.36398 -18.211727,27.04291 -22.228157,38.82464 -24.617117,72.21268 -2.8379,39.66456 -2.72823,40.01241 18.778177,59.58292 22.18254,20.18561 28.00471,35.67253 13.41088,35.67253 -4.52195,0 -11.5653,-4.0288 -15.6518,-8.9526 -11.779357,-14.19308 -17.045077,-10.60632 -19.037217,12.9676 -2.64124,31.2538 -16.773478,33.6159 -16.773478,2.8031 z m 128.959955,13.5839 c -1.99258,-5.1924 -3.62268,-23.1798 -3.62268,-39.97127 l 0,-30.52981 -18.42176,25.04959 c -10.1319,13.7772 -20.71674,25.04949 -23.52151,25.04949 -14.45183,0 -9.31327,-14.30758 14.95015,-41.62691 22.52419,-25.36115 26.99312,-34.37718 26.99312,-54.45967 0,-27.28302 -6.34335,-41.68552 -30.71759,-69.74522 -9.36644,-10.78277 -17.02996,-22.19738 -17.02996,-25.36587 0,-11.43187 13.02775,-5.37891 28.73542,13.35074 l 16.02781,19.11158 2.98432,-40.09184 c 1.64128,-22.0505 5.66989,-40.09655 8.95259,-40.10216 3.28256,-0.005 7.31137,16.82137 8.95259,37.39346 l 2.98426,37.40379 13.83547,-19.39734 c 7.60938,-10.66858 16.3383,-19.39741 19.39749,-19.39741 10.65634,0 5.44062,18.91515 -12.34339,44.76328 -15.37302,22.34382 -17.90544,31.49163 -17.90544,64.68031 l 0,38.65583 29.84224,24.98531 c 28.4513,23.82082 38.18002,41.77912 22.63331,41.77912 -3.96488,0 -17.39383,-9.9455 -29.84211,-22.10088 L 217.55018,977.69 l 0,21.6129 c 0,24.0911 -4.83514,40.4942 -11.93683,40.4942 -2.58019,0 -6.32155,-4.2482 -8.31406,-9.4402 z"
       id="path4206"
       inkscape:connector-curvature="0" />
  </g>
</svg>
